<?xml version="1.0"?>
<svg width="640" height="480" xmlns="http://www.w3.org/2000/svg" xmlns:svg="http://www.w3.org/2000/svg">
 <!-- Created with SVG-edit - http://svg-edit.googlecode.com/ -->
 <g>
  <title>Layer 1</title>
  <g id="svg_5">
   <polygon stroke="#000000" stroke-width="5" points="151.99999573461537,67.9332431905359 186.2955993847936,145.8181676309723 290.7286376953125,147.49814602585866 207.49145251889422,197.31364154636321 237.73900486006096,276.2368469238281 151.99999573461537,229.13960268049232 66.26097640547323,276.2368469238281 96.50853895033651,197.31364154636321 13.271343570221688,147.49814602585866 117.70439208443713,145.8181676309723 151.99999573461537,67.9332431905359 186.2955993847936,145.8181676309723 " strokeWidth="5" strokecolor="#000000" fill="#007fff" orient="point" r2="43.626699" r="109.066748" point="5" shape="star" id="svg_1" cy="87" cx="83"/>
   <polygon stroke="#000000" stroke-width="5" points="189.50000327172165,128.08525459279554 209.39633252241583,182.44550880753377 269.9822998046875,183.61806125137082 221.6929261952373,218.38710259278378 239.24081562263382,273.4720764160156 189.50000327172165,240.6002252562139 139.7591909208095,273.4720764160156 157.30705879655943,218.38710259278378 109.01768518710924,183.61806125137082 169.60367402102747,182.44550880753377 189.50000327172165,128.08525459279554 209.39633252241583,182.44550880753377 " strokeWidth="5" strokecolor="#000000" fill="#ffff00" orient="point" r2="23.965902" r="59.914754" point="5" shape="star" id="svg_2" cy="124" cx="109"/>
   <text stroke="#000000" transform="matrix(4.404769203599471,0,0,2.9200000762939453,-767.3713526907571,-550.29002186656) " xml:space="preserve" text-anchor="middle" font-family="serif" font-size="24" id="svg_3" y="249.438358" x="210.026999" stroke-width="0" fill="#000000">GBV</text>
  </g>
 </g>
</svg>